<svg xmlns="http://www.w3.org/2000/svg" width="600" height="600" viewBox="0 0 600 600">
  <defs>
    <style>
      .cls-1 {
        fill:#FFF;
      }
    </style>
  </defs>
  <path id="シェイプ_2" data-name="シェイプ 2" class="cls-1" d="M264.75,63.75C241.98,61.576,221.093,82.021,186,100.5c-43.125,22.709-99.39,38.953-98.25,42.75,1.8,5.984,112.47-41.329,204.75,4.5C378.257,190.339,424.941,297.3,407.25,313.5c-21.773,19.94-162.782-77.691-152.473-102.885,8.2-20.04,117.312-9.291,130.313,30.92,5.034,15.57-14.192,45.4-58.746,85.424-25.015,22.472-50.989,42.712-69.891,53.338-53.2,29.9-136.73,36.457-140.2,58.453-4.992,31.612,119.112,72.565,115.5,84-2.205,6.981-50.043-3.7-50.766-.932C179.542,527.355,369.642,572.359,369,575.25c-0.466,2.1-103.725-7.633-136.664-68.443-8.9-16.431-10.729-30.385-8.836-41.807,3.846-23.2,22.15-34.679,45-56.25,9.931-9.375,15.135-18.106,25.5-27,61.753-52.989,131.7-30.293,181.5-81.75,26.791-27.68,39.052-67.427,33-102-10.605-60.583-77.565-108.284-114-95.25-31.668,11.329-26.86,66.916-59.549,96.076-69.342,61.856-231.117,12.883-232.2-21.076-0.985-30.86,129.812-78.22,246-84.75,37.87-2.128,78.652-.62,83.672-16.682,5.156-16.5-28.853-46.962-65.713-58.189-34.671-10.561-61.62-1.3-103.33,8.7-23.606,5.657-64.505,14.347-64.565,14.115-0.159-.619,67.452-22.625,141.8-0.17,46.3,13.983,74.167,38.878,72.633,41.731-2.5,4.652-84.282-51.472-172.271-31.394-21.416,4.887-45.744,15.087-73.237,33.34-23.609,15.675-62.9,47.031-57.492,57.3,6.693,12.725,95.615-24.964,174.75-28.5,56.547-2.527,203.917,2.035,254.25,92.25,5.439,9.748,24.28,46.649,10.5,62.25-45,50.944-370.728-202.252-417-150.75-13.978,15.558.212,55.9,21,83.25C240.826,314.81,500.5,243.293,510,279.75c4.909,18.842-58.669,58.361-141.756,89.068C304.357,392.43,166.314,407.773,160.5,435.75,149.441,488.967,422.671,578.784,421.5,582c-0.866,2.377-154.469-34.59-158.3-98.221-1.436-23.873,18.784-41.675,43.811-65.338q45.072-42.615,87.89-91.845C366.541,188.715,325.318,69.533,264.75,63.75Z"/>
  <path id="シェイプ_3" data-name="シェイプ 3" class="cls-1" d="M127.5,313.5c10.749-28.477-84.674-95.626-86.25-93.75-1.779,2.118,96.993,114.941,202.828,102.023,59.775-7.3,104.668-52.6,102.041-56.871-1.6-2.6-33.579,15.6-63.369,26.848C164.225,336.512,65.406,327.227,65.42,327.668,65.43,328,120.142,333,127.5,313.5Z"/>
</svg>
